<?xml version="1.0" encoding="utf-8" standalone="no"?>
<!DOCTYPE svg PUBLIC "-//W3C//DTD SVG 1.1//EN"
  "http://www.w3.org/Graphics/SVG/1.1/DTD/svg11.dtd">
<svg xmlns:xlink="http://www.w3.org/1999/xlink" width="405.288pt" height="274.644pt" viewBox="0 0 405.288 274.644" xmlns="http://www.w3.org/2000/svg" version="1.1">
 <metadata>
  <rdf:RDF xmlns:dc="http://purl.org/dc/elements/1.1/" xmlns:cc="http://creativecommons.org/ns#" xmlns:rdf="http://www.w3.org/1999/02/22-rdf-syntax-ns#">
   <cc:Work>
    <dc:type rdf:resource="http://purl.org/dc/dcmitype/StillImage"/>
    <dc:date>2026-08-25T00:47:51.688490</dc:date>
    <dc:format>image/svg+xml</dc:format>
    <dc:creator>
     <cc:Agent>
      <dc:title>Matplotlib v3.11.1, https://matplotlib.org/</dc:title>
     </cc:Agent>
    </dc:creator>
   </cc:Work>
  </rdf:RDF>
 </metadata>
 <defs>
  <style type="text/css">*{stroke-linejoin: round; stroke-linecap: butt}</style>
 </defs>
 <g id="figure_1">
  <g id="patch_1">
   <path d="M 0 274.644
L 405.288 274.644
L 405.288 0
L 0 0
z
" style="fill: #ffffff"/>
  </g>
  <g id="axes_1">
   <g id="patch_2">
    <path d="M 14.86584 120.651192
L 120.74076 120.651192
Q 127.932264 120.651192 127.932264 115.81128
L 127.932264 27.07956
Q 127.932264 22.239648 120.74076 22.239648
L 14.86584 22.239648
Q 7.674336 22.239648 7.674336 27.07956
L 7.674336 115.81128
Q 7.674336 120.651192 14.86584 120.651192
z
" clip-path="url(#p77bb39b56c)" style="fill: #e8f2f8; stroke: #0072b2; stroke-width: 1.1; stroke-linejoin: miter"/>
   </g>
   <g id="patch_3">
    <path d="M 149.70654 120.651192
L 255.58146 120.651192
Q 262.772964 120.651192 262.772964 115.81128
L 262.772964 27.07956
Q 262.772964 22.239648 255.58146 22.239648
L 149.70654 22.239648
Q 142.515036 22.239648 142.515036 27.07956
L 142.515036 115.81128
Q 142.515036 120.651192 149.70654 120.651192
z
" clip-path="url(#p77bb39b56c)" style="fill: #e7f4ef; stroke: #009e73; stroke-width: 1.1; stroke-linejoin: miter"/>
   </g>
   <g id="patch_4">
    <path d="M 284.54724 120.651192
L 390.42216 120.651192
Q 397.613664 120.651192 397.613664 115.81128
L 397.613664 27.07956
Q 397.613664 22.239648 390.42216 22.239648
L 284.54724 22.239648
Q 277.355736 22.239648 277.355736 27.07956
L 277.355736 115.81128
Q 277.355736 120.651192 284.54724 120.651192
z
" clip-path="url(#p77bb39b56c)" style="fill: #f1eaf5; stroke: #8c6bb1; stroke-width: 1.1; stroke-linejoin: miter"/>
   </g>
   <g id="patch_5">
    <path d="M 284.54724 247.026672
L 390.42216 247.026672
Q 397.613664 247.026672 397.613664 242.18676
L 397.613664 153.45504
Q 397.613664 148.615128 390.42216 148.615128
L 284.54724 148.615128
Q 277.355736 148.615128 277.355736 153.45504
L 277.355736 242.18676
Q 277.355736 247.026672 284.54724 247.026672
z
" clip-path="url(#p77bb39b56c)" style="fill: #fbf1dc; stroke: #e69f00; stroke-width: 1.1; stroke-linejoin: miter"/>
   </g>
   <g id="patch_6">
    <path d="M 149.70654 247.026672
L 255.58146 247.026672
Q 262.772964 247.026672 262.772964 242.18676
L 262.772964 153.45504
Q 262.772964 148.615128 255.58146 148.615128
L 149.70654 148.615128
Q 142.515036 148.615128 142.515036 153.45504
L 142.515036 242.18676
Q 142.515036 247.026672 149.70654 247.026672
z
" clip-path="url(#p77bb39b56c)" style="fill: #f7f1de; stroke: #9a7b1c; stroke-width: 1.1; stroke-linejoin: miter"/>
   </g>
   <g id="patch_7">
    <path d="M 14.86584 247.026672
L 120.74076 247.026672
Q 127.932264 247.026672 127.932264 242.18676
L 127.932264 153.45504
Q 127.932264 148.615128 120.74076 148.615128
L 14.86584 148.615128
Q 7.674336 148.615128 7.674336 153.45504
L 7.674336 242.18676
Q 7.674336 247.026672 14.86584 247.026672
z
" clip-path="url(#p77bb39b56c)" style="fill: #eef1f5; stroke: #333333; stroke-width: 1.1; stroke-linejoin: miter"/>
   </g>
   <g id="text_1">
    <text style="font-weight: 700; font-size: 7.8px; font-family: 'Arial', 'Liberation Sans', 'DejaVu Sans', sans-serif; text-anchor: start" x="34.043184" y="39.097706" transform="rotate(-0 34.043184 39.097706)">Generation and transport</text>
   </g>
   <g id="text_2">
    <text style="font-size: 6.85px; font-family: 'Arial', 'Liberation Sans', 'DejaVu Sans', sans-serif; text-anchor: middle" x="67.8033" y="62.462698" transform="rotate(-0 67.8033 62.462698)">Photonic terahertz generation  n=68</text>
   </g>
   <g id="text_3">
    <text style="font-size: 6.85px; font-family: 'Arial', 'Liberation Sans', 'DejaVu Sans', sans-serif; text-anchor: middle" x="67.8033" y="75.906965" transform="rotate(-0 67.8033 75.906965)">Coherent optics  n=64</text>
   </g>
   <g id="text_4">
    <text style="font-size: 6.85px; font-family: 'Arial', 'Liberation Sans', 'DejaVu Sans', sans-serif; text-anchor: middle" x="67.8033" y="89.351098" transform="rotate(-0 67.8033 89.351098)">Fiber sensing reuse  n=22</text>
   </g>
   <g id="text_5">
    <text style="font-size: 6.85px; font-family: 'Arial', 'Liberation Sans', 'DejaVu Sans', sans-serif; text-anchor: middle" x="67.8033" y="102.795298" transform="rotate(-0 67.8033 102.795298)">Photonic integration  n=20</text>
   </g>
   <g id="text_6">
    <text style="font-weight: 700; font-size: 7.8px; font-family: 'Arial', 'Liberation Sans', 'DejaVu Sans', sans-serif" transform="translate(168.883884 36.161584)">Waveforms and</text>
    <text style="font-weight: 700; font-size: 7.8px; font-family: 'Arial', 'Liberation Sans', 'DejaVu Sans', sans-serif" transform="translate(168.883884 43.43417)">observables</text>
   </g>
   <g id="text_7">
    <text style="font-size: 6.85px; font-family: 'Arial', 'Liberation Sans', 'DejaVu Sans', sans-serif; text-anchor: middle" x="202.644" y="62.462698" transform="rotate(-0 202.644 62.462698)">Chirped processing  n=66</text>
   </g>
   <g id="text_8">
    <text style="font-size: 6.85px; font-family: 'Arial', 'Liberation Sans', 'DejaVu Sans', sans-serif; text-anchor: middle" x="202.644" y="78.595805" transform="rotate(-0 202.644 78.595805)">Multicarrier waveform  n=56</text>
   </g>
   <g id="text_9">
    <text style="font-weight: 700; font-size: 7.8px; font-family: 'Arial', 'Liberation Sans', 'DejaVu Sans', sans-serif; text-anchor: start" x="303.724584" y="39.097706" transform="rotate(-0 303.724584 39.097706)">Spatial control</text>
   </g>
   <g id="text_10">
    <text style="font-size: 6.85px; font-family: 'Arial', 'Liberation Sans', 'DejaVu Sans', sans-serif; text-anchor: middle" x="337.4847" y="62.462698" transform="rotate(-0 337.4847 62.462698)">Beamforming  n=13</text>
   </g>
   <g id="text_11">
    <text style="font-size: 6.85px; font-family: 'Arial', 'Liberation Sans', 'DejaVu Sans', sans-serif; text-anchor: middle" x="337.4847" y="78.597678" transform="rotate(-0 337.4847 78.597678)">Optical phased array  n=8</text>
   </g>
   <g id="text_12">
    <text style="font-size: 6.85px; font-family: 'Arial', 'Liberation Sans', 'DejaVu Sans', sans-serif; text-anchor: middle" x="337.4847" y="94.728845" transform="rotate(-0 337.4847 94.728845)">Multiple input multiple output  n=7</text>
   </g>
   <g id="text_13">
    <text style="font-weight: 700; font-size: 7.8px; font-family: 'Arial', 'Liberation Sans', 'DejaVu Sans', sans-serif; text-anchor: start" x="303.724584" y="166.197123" transform="rotate(-0 303.724584 166.197123)">Inference</text>
   </g>
   <g id="text_14">
    <text style="font-size: 6.85px; font-family: 'Arial', 'Liberation Sans', 'DejaVu Sans', sans-serif; text-anchor: middle" x="337.4847" y="188.838178" transform="rotate(-0 337.4847 188.838178)">Machine learning  n=20</text>
   </g>
   <g id="text_15">
    <text style="font-size: 6.85px; font-family: 'Arial', 'Liberation Sans', 'DejaVu Sans', sans-serif; text-anchor: middle" x="337.4847" y="204.971218" transform="rotate(-0 337.4847 204.971218)">Digital twin  n=2</text>
   </g>
   <g id="text_16">
    <text style="font-weight: 700; font-size: 7.8px; font-family: 'Arial', 'Liberation Sans', 'DejaVu Sans', sans-serif" transform="translate(168.883884 161.813127)">Selected application</text>
    <text style="font-weight: 700; font-size: 7.8px; font-family: 'Arial', 'Liberation Sans', 'DejaVu Sans', sans-serif" transform="translate(168.883884 169.80965)">domains</text>
   </g>
   <g id="text_17">
    <text style="font-size: 6.85px; font-family: 'Arial', 'Liberation Sans', 'DejaVu Sans', sans-serif; text-anchor: middle" x="202.644" y="188.838245" transform="rotate(-0 202.644 188.838245)">Vehicular  n=41</text>
   </g>
   <g id="text_18">
    <text style="font-size: 6.85px; font-family: 'Arial', 'Liberation Sans', 'DejaVu Sans', sans-serif; text-anchor: middle" x="202.644" y="202.282378" transform="rotate(-0 202.644 202.282378)">Environmental monitoring  n=55</text>
   </g>
   <g id="text_19">
    <text style="font-size: 6.85px; font-family: 'Arial', 'Liberation Sans', 'DejaVu Sans', sans-serif; text-anchor: middle" x="202.644" y="215.726578" transform="rotate(-0 202.644 215.726578)">Indoor positioning  n=13</text>
   </g>
   <g id="text_20">
    <text style="font-size: 6.85px; font-family: 'Arial', 'Liberation Sans', 'DejaVu Sans', sans-serif; text-anchor: middle" x="202.644" y="229.170845" transform="rotate(-0 202.644 229.170845)">Aerospace  n=20</text>
   </g>
   <g id="text_21">
    <text style="font-weight: 700; font-size: 7.8px; font-family: 'Arial', 'Liberation Sans', 'DejaVu Sans', sans-serif; text-anchor: start" x="34.043184" y="165.421998" transform="rotate(-0 34.043184 165.421998)">6G evidence gate</text>
   </g>
   <g id="text_22">
    <text style="font-size: 6.85px; font-family: 'Arial', 'Liberation Sans', 'DejaVu Sans', sans-serif; text-anchor: middle" x="67.8033" y="188.838245" transform="rotate(-0 67.8033 188.838245)">Direct relevance  n=138</text>
   </g>
   <g id="text_23">
    <text style="font-size: 6.85px; font-family: 'Arial', 'Liberation Sans', 'DejaVu Sans', sans-serif; text-anchor: middle" x="67.8033" y="202.282445" transform="rotate(-0 67.8033 202.282445)">Inferential relevance  n=64</text>
   </g>
   <g id="text_24">
    <text style="font-size: 6.85px; font-family: 'Arial', 'Liberation Sans', 'DejaVu Sans', sans-serif; text-anchor: middle" x="67.8033" y="215.726645" transform="rotate(-0 67.8033 215.726645)">Weak relevance  n=1</text>
   </g>
   <g id="text_25">
    <text style="font-size: 6.85px; font-family: 'Arial', 'Liberation Sans', 'DejaVu Sans', sans-serif; text-anchor: middle" x="67.8033" y="229.170845" transform="rotate(-0 67.8033 229.170845)">Not applicable  n=3</text>
   </g>
   <g id="text_26">
    <text style="font-weight: 700; font-size: 7.7px; font-family: 'Arial', 'Liberation Sans', 'DejaVu Sans', sans-serif; text-anchor: middle; fill: #333333" x="314.51184" y="143.347936" transform="rotate(-0 314.51184 143.347936)">Evidence path</text>
   </g>
   <g id="text_27">
    <text style="font-size: 7.4px; font-family: 'Arial', 'Liberation Sans', 'DejaVu Sans', sans-serif; text-anchor: middle; fill: #777777" x="118.74312" y="143.270299" transform="rotate(-0 118.74312 143.270299)">Requirement feedback</text>
   </g>
   <g id="text_28">
    <text style="font-size: 7.7px; font-family: 'Arial', 'Liberation Sans', 'DejaVu Sans', sans-serif; text-anchor: middle; fill: #333333" x="202.644" y="267.034501" transform="rotate(-0 202.644 267.034501)">Technology and application labels may overlap. The 6G evidence gate assigns one class per study.</text>
   </g>
   <g id="patch_8">
    <path d="M 22.057344 39.448224
C 23.964553 39.448224 25.793905 38.93826 27.142505 38.030647
C 28.491106 37.123033 29.248848 35.891872 29.248848 34.608312
C 29.248848 33.324752 28.491106 32.093591 27.142505 31.185977
C 25.793905 30.278364 23.964553 29.7684 22.057344 29.7684
C 20.150135 29.7684 18.320783 30.278364 16.972183 31.185977
C 15.623582 32.093591 14.86584 33.324752 14.86584 34.608312
C 14.86584 35.891872 15.623582 37.123033 16.972183 38.030647
C 18.320783 38.93826 20.150135 39.448224 22.057344 39.448224
z
" clip-path="url(#p77bb39b56c)" style="fill: #0072b2; stroke: #ffffff; stroke-width: 0.5; stroke-linejoin: miter"/>
   </g>
   <g id="patch_9">
    <path d="M 156.898044 39.448224
C 158.805253 39.448224 160.634605 38.93826 161.983205 38.030647
C 163.331806 37.123033 164.089548 35.891872 164.089548 34.608312
C 164.089548 33.324752 163.331806 32.093591 161.983205 31.185977
C 160.634605 30.278364 158.805253 29.7684 156.898044 29.7684
C 154.990835 29.7684 153.161483 30.278364 151.812883 31.185977
C 150.464282 32.093591 149.70654 33.324752 149.70654 34.608312
C 149.70654 35.891872 150.464282 37.123033 151.812883 38.030647
C 153.161483 38.93826 154.990835 39.448224 156.898044 39.448224
z
" clip-path="url(#p77bb39b56c)" style="fill: #009e73; stroke: #ffffff; stroke-width: 0.5; stroke-linejoin: miter"/>
   </g>
   <g id="patch_10">
    <path d="M 291.738744 39.448224
C 293.645953 39.448224 295.475305 38.93826 296.823905 38.030647
C 298.172506 37.123033 298.930248 35.891872 298.930248 34.608312
C 298.930248 33.324752 298.172506 32.093591 296.823905 31.185977
C 295.475305 30.278364 293.645953 29.7684 291.738744 29.7684
C 289.831535 29.7684 288.002183 30.278364 286.653583 31.185977
C 285.304982 32.093591 284.54724 33.324752 284.54724 34.608312
C 284.54724 35.891872 285.304982 37.123033 286.653583 38.030647
C 288.002183 38.93826 289.831535 39.448224 291.738744 39.448224
z
" clip-path="url(#p77bb39b56c)" style="fill: #8c6bb1; stroke: #ffffff; stroke-width: 0.5; stroke-linejoin: miter"/>
   </g>
   <g id="patch_11">
    <path d="M 291.738744 165.823704
C 293.645953 165.823704 295.475305 165.31374 296.823905 164.406127
C 298.172506 163.498513 298.930248 162.267352 298.930248 160.983792
C 298.930248 159.700232 298.172506 158.469071 296.823905 157.561457
C 295.475305 156.653844 293.645953 156.14388 291.738744 156.14388
C 289.831535 156.14388 288.002183 156.653844 286.653583 157.561457
C 285.304982 158.469071 284.54724 159.700232 284.54724 160.983792
C 284.54724 162.267352 285.304982 163.498513 286.653583 164.406127
C 288.002183 165.31374 289.831535 165.823704 291.738744 165.823704
z
" clip-path="url(#p77bb39b56c)" style="fill: #e69f00; stroke: #ffffff; stroke-width: 0.5; stroke-linejoin: miter"/>
   </g>
   <g id="patch_12">
    <path d="M 156.898044 165.823704
C 158.805253 165.823704 160.634605 165.31374 161.983205 164.406127
C 163.331806 163.498513 164.089548 162.267352 164.089548 160.983792
C 164.089548 159.700232 163.331806 158.469071 161.983205 157.561457
C 160.634605 156.653844 158.805253 156.14388 156.898044 156.14388
C 154.990835 156.14388 153.161483 156.653844 151.812883 157.561457
C 150.464282 158.469071 149.70654 159.700232 149.70654 160.983792
C 149.70654 162.267352 150.464282 163.498513 151.812883 164.406127
C 153.161483 165.31374 154.990835 165.823704 156.898044 165.823704
z
" clip-path="url(#p77bb39b56c)" style="fill: #9a7b1c; stroke: #ffffff; stroke-width: 0.5; stroke-linejoin: miter"/>
   </g>
   <g id="patch_13">
    <path d="M 22.057344 165.823704
C 23.964553 165.823704 25.793905 165.31374 27.142505 164.406127
C 28.491106 163.498513 29.248848 162.267352 29.248848 160.983792
C 29.248848 159.700232 28.491106 158.469071 27.142505 157.561457
C 25.793905 156.653844 23.964553 156.14388 22.057344 156.14388
C 20.150135 156.14388 18.320783 156.653844 16.972183 157.561457
C 15.623582 158.469071 14.86584 159.700232 14.86584 160.983792
C 14.86584 162.267352 15.623582 163.498513 16.972183 164.406127
C 18.320783 165.31374 20.150135 165.823704 22.057344 165.823704
z
" clip-path="url(#p77bb39b56c)" style="fill: #333333; stroke: #ffffff; stroke-width: 0.5; stroke-linejoin: miter"/>
   </g>
   <g id="text_29">
    <text style="font-weight: 700; font-size: 7.1px; font-family: 'Arial', 'Liberation Sans', 'DejaVu Sans', sans-serif; text-anchor: middle; fill: #ffffff" x="22.057344" y="36.445714" transform="rotate(-0 22.057344 36.445714)">1</text>
   </g>
   <g id="text_30">
    <text style="font-weight: 700; font-size: 7.1px; font-family: 'Arial', 'Liberation Sans', 'DejaVu Sans', sans-serif; text-anchor: middle; fill: #ffffff" x="156.898044" y="36.445714" transform="rotate(-0 156.898044 36.445714)">2</text>
   </g>
   <g id="text_31">
    <text style="font-weight: 700; font-size: 7.1px; font-family: 'Arial', 'Liberation Sans', 'DejaVu Sans', sans-serif; text-anchor: middle; fill: #ffffff" x="291.738744" y="36.445714" transform="rotate(-0 291.738744 36.445714)">3</text>
   </g>
   <g id="text_32">
    <text style="font-weight: 700; font-size: 7.1px; font-family: 'Arial', 'Liberation Sans', 'DejaVu Sans', sans-serif; text-anchor: middle; fill: #ffffff" x="291.738744" y="162.821194" transform="rotate(-0 291.738744 162.821194)">4</text>
   </g>
   <g id="text_33">
    <text style="font-weight: 700; font-size: 7.1px; font-family: 'Arial', 'Liberation Sans', 'DejaVu Sans', sans-serif; text-anchor: middle; fill: #ffffff" x="156.898044" y="162.821194" transform="rotate(-0 156.898044 162.821194)">5</text>
   </g>
   <g id="text_34">
    <text style="font-weight: 700; font-size: 7.1px; font-family: 'Arial', 'Liberation Sans', 'DejaVu Sans', sans-serif; text-anchor: middle; fill: #ffffff" x="22.057344" y="162.821194" transform="rotate(-0 22.057344 162.821194)">6</text>
   </g>
   <g id="patch_14">
    <path d="M 127.932264 71.44542
Q 135.22365 71.44542 141.061592 71.44542
" clip-path="url(#p77bb39b56c)" style="fill: none; stroke: #333333; stroke-width: 1.3; stroke-linecap: round"/>
    <path d="M 136.261592 69.04542
L 141.061592 71.44542
L 136.261592 73.84542
z
" clip-path="url(#p77bb39b56c)" style="fill: #333333; stroke: #333333; stroke-width: 1.3; stroke-linecap: round"/>
   </g>
   <g id="patch_15">
    <path d="M 262.772964 71.44542
Q 270.06435 71.44542 275.902292 71.44542
" clip-path="url(#p77bb39b56c)" style="fill: none; stroke: #333333; stroke-width: 1.3; stroke-linecap: round"/>
    <path d="M 271.102292 69.04542
L 275.902292 71.44542
L 271.102292 73.84542
z
" clip-path="url(#p77bb39b56c)" style="fill: #333333; stroke: #333333; stroke-width: 1.3; stroke-linecap: round"/>
   </g>
   <g id="patch_16">
    <path d="M 337.4847 118.50012
Q 337.4847 134.63316 337.4847 149.312756
" clip-path="url(#p77bb39b56c)" style="fill: none; stroke: #333333; stroke-width: 1.3; stroke-linecap: round"/>
    <path d="M 339.8847 144.512756
L 337.4847 149.312756
L 335.0847 144.512756
z
" clip-path="url(#p77bb39b56c)" style="fill: #333333; stroke: #333333; stroke-width: 1.3; stroke-linecap: round"/>
   </g>
   <g id="patch_17">
    <path d="M 277.355736 197.8209
Q 270.06435 197.8209 264.226408 197.8209
" clip-path="url(#p77bb39b56c)" style="fill: none; stroke: #333333; stroke-width: 1.3; stroke-linecap: round"/>
    <path d="M 269.026408 200.2209
L 264.226408 197.8209
L 269.026408 195.4209
z
" clip-path="url(#p77bb39b56c)" style="fill: #333333; stroke: #333333; stroke-width: 1.3; stroke-linecap: round"/>
   </g>
   <g id="patch_18">
    <path d="M 142.515036 197.8209
Q 135.22365 197.8209 129.385708 197.8209
" clip-path="url(#p77bb39b56c)" style="fill: none; stroke: #333333; stroke-width: 1.3; stroke-linecap: round"/>
    <path d="M 134.185708 200.2209
L 129.385708 197.8209
L 134.185708 195.4209
z
" clip-path="url(#p77bb39b56c)" style="fill: #333333; stroke: #333333; stroke-width: 1.3; stroke-linecap: round"/>
   </g>
   <g id="patch_19">
    <path d="M 202.644 150.7662
Q 143.758742 96.598094 68.094875 118.132859
" clip-path="url(#p77bb39b56c)" style="fill: none; stroke-dasharray: 4.44,1.92; stroke-dashoffset: 0; stroke: #777777; stroke-width: 1.2; stroke-linecap: round"/>
    <path d="M 73.807978 119.210102
L 68.094875 118.132859
L 72.384531 114.208722
z
" clip-path="url(#p77bb39b56c)" style="fill: #777777; stroke-dasharray: 4.44,1.92; stroke-dashoffset: 0; stroke: #777777; stroke-width: 1.2; stroke-linecap: round"/>
   </g>
  </g>
 </g>
 <defs>
  <clipPath id="p77bb39b56c">
   <rect x="2.88" y="2.88" width="399.528" height="268.884"/>
  </clipPath>
 </defs>
</svg>
