<?xml version="1.0" encoding="utf-8" standalone="no"?>
<!DOCTYPE svg PUBLIC "-//W3C//DTD SVG 1.1//EN"
  "http://www.w3.org/Graphics/SVG/1.1/DTD/svg11.dtd">
<svg xmlns:xlink="http://www.w3.org/1999/xlink" width="405.288pt" height="302.364pt" viewBox="0 0 405.288 302.364" xmlns="http://www.w3.org/2000/svg" version="1.1">
 <metadata>
  <rdf:RDF xmlns:dc="http://purl.org/dc/elements/1.1/" xmlns:cc="http://creativecommons.org/ns#" xmlns:rdf="http://www.w3.org/1999/02/22-rdf-syntax-ns#">
   <cc:Work>
    <dc:type rdf:resource="http://purl.org/dc/dcmitype/StillImage"/>
    <dc:date>2026-08-25T00:47:45.923633</dc:date>
    <dc:format>image/svg+xml</dc:format>
    <dc:creator>
     <cc:Agent>
      <dc:title>Matplotlib v3.11.1, https://matplotlib.org/</dc:title>
     </cc:Agent>
    </dc:creator>
   </cc:Work>
  </rdf:RDF>
 </metadata>
 <defs>
  <style type="text/css">*{stroke-linejoin: round; stroke-linecap: butt}</style>
 </defs>
 <g id="figure_1">
  <g id="patch_1">
   <path d="M 0 302.364
L 405.288 302.364
L 405.288 0
L 0 0
z
" style="fill: #ffffff"/>
  </g>
  <g id="axes_1">
   <g id="patch_2">
    <path d="M 118.74312 51.523056
Q 118.74312 57.75174 118.74312 62.86239
" clip-path="url(#p28543d1d82)" style="fill: none; stroke: #777777; stroke-linecap: round"/>
    <path d="M 120.34312 59.66239
L 118.74312 62.86239
L 117.14312 59.66239
z
" clip-path="url(#p28543d1d82)" style="fill: #777777; stroke: #777777; stroke-linecap: round"/>
   </g>
   <g id="patch_3">
    <path d="M 118.74312 90.081576
Q 118.74312 96.31026 118.74312 101.42091
" clip-path="url(#p28543d1d82)" style="fill: none; stroke: #777777; stroke-linecap: round"/>
    <path d="M 120.34312 98.22091
L 118.74312 101.42091
L 117.14312 98.22091
z
" clip-path="url(#p28543d1d82)" style="fill: #777777; stroke: #777777; stroke-linecap: round"/>
   </g>
   <g id="patch_4">
    <path d="M 118.74312 128.640096
Q 118.74312 134.86878 118.74312 139.97943
" clip-path="url(#p28543d1d82)" style="fill: none; stroke: #777777; stroke-linecap: round"/>
    <path d="M 120.34312 136.77943
L 118.74312 139.97943
L 117.14312 136.77943
z
" clip-path="url(#p28543d1d82)" style="fill: #777777; stroke: #777777; stroke-linecap: round"/>
   </g>
   <g id="patch_5">
    <path d="M 118.74312 167.198616
Q 118.74312 173.4273 118.74312 178.53795
" clip-path="url(#p28543d1d82)" style="fill: none; stroke: #777777; stroke-linecap: round"/>
    <path d="M 120.34312 175.33795
L 118.74312 178.53795
L 117.14312 175.33795
z
" clip-path="url(#p28543d1d82)" style="fill: #777777; stroke: #777777; stroke-linecap: round"/>
   </g>
   <g id="patch_6">
    <path d="M 118.74312 205.757136
Q 118.74312 211.98582 118.74312 217.09647
" clip-path="url(#p28543d1d82)" style="fill: none; stroke: #777777; stroke-linecap: round"/>
    <path d="M 120.34312 213.89647
L 118.74312 217.09647
L 117.14312 213.89647
z
" clip-path="url(#p28543d1d82)" style="fill: #777777; stroke: #777777; stroke-linecap: round"/>
   </g>
   <g id="patch_7">
    <path d="M 118.74312 244.315656
Q 118.74312 250.54434 118.74312 255.65499
" clip-path="url(#p28543d1d82)" style="fill: none; stroke: #777777; stroke-linecap: round"/>
    <path d="M 120.34312 252.45499
L 118.74312 255.65499
L 117.14312 252.45499
z
" clip-path="url(#p28543d1d82)" style="fill: #777777; stroke: #777777; stroke-linecap: round"/>
   </g>
   <g id="patch_8">
    <path d="M 38.83752 53.599284
L 198.64872 53.599284
Q 205.840224 53.599284 205.840224 48.260412
L 205.840224 28.684548
Q 205.840224 23.345676 198.64872 23.345676
L 38.83752 23.345676
Q 31.646016 23.345676 31.646016 28.684548
L 31.646016 48.260412
Q 31.646016 53.599284 38.83752 53.599284
z
" clip-path="url(#p28543d1d82)" style="fill: #e8f2f8; stroke: #0072b2; stroke-width: 1.1; stroke-linejoin: miter"/>
   </g>
   <g id="patch_9">
    <path d="M 38.83752 92.157804
L 198.64872 92.157804
Q 205.840224 92.157804 205.840224 86.818932
L 205.840224 67.243068
Q 205.840224 61.904196 198.64872 61.904196
L 38.83752 61.904196
Q 31.646016 61.904196 31.646016 67.243068
L 31.646016 86.818932
Q 31.646016 92.157804 38.83752 92.157804
z
" clip-path="url(#p28543d1d82)" style="fill: #e8f2f8; stroke: #0072b2; stroke-width: 1.1; stroke-linejoin: miter"/>
   </g>
   <g id="patch_10">
    <path d="M 38.83752 130.716324
L 198.64872 130.716324
Q 205.840224 130.716324 205.840224 125.377452
L 205.840224 105.801588
Q 205.840224 100.462716 198.64872 100.462716
L 38.83752 100.462716
Q 31.646016 100.462716 31.646016 105.801588
L 31.646016 125.377452
Q 31.646016 130.716324 38.83752 130.716324
z
" clip-path="url(#p28543d1d82)" style="fill: #e8f2f8; stroke: #0072b2; stroke-width: 1.1; stroke-linejoin: miter"/>
   </g>
   <g id="patch_11">
    <path d="M 38.83752 169.274844
L 198.64872 169.274844
Q 205.840224 169.274844 205.840224 163.935972
L 205.840224 144.360108
Q 205.840224 139.021236 198.64872 139.021236
L 38.83752 139.021236
Q 31.646016 139.021236 31.646016 144.360108
L 31.646016 163.935972
Q 31.646016 169.274844 38.83752 169.274844
z
" clip-path="url(#p28543d1d82)" style="fill: #e7f4ef; stroke: #009e73; stroke-width: 1.1; stroke-linejoin: miter"/>
   </g>
   <g id="patch_12">
    <path d="M 38.83752 207.833364
L 198.64872 207.833364
Q 205.840224 207.833364 205.840224 202.494492
L 205.840224 182.918628
Q 205.840224 177.579756 198.64872 177.579756
L 38.83752 177.579756
Q 31.646016 177.579756 31.646016 182.918628
L 31.646016 202.494492
Q 31.646016 207.833364 38.83752 207.833364
z
" clip-path="url(#p28543d1d82)" style="fill: #e7f4ef; stroke: #009e73; stroke-width: 1.1; stroke-linejoin: miter"/>
   </g>
   <g id="patch_13">
    <path d="M 38.83752 246.391884
L 198.64872 246.391884
Q 205.840224 246.391884 205.840224 241.053012
L 205.840224 221.477148
Q 205.840224 216.138276 198.64872 216.138276
L 38.83752 216.138276
Q 31.646016 216.138276 31.646016 221.477148
L 31.646016 241.053012
Q 31.646016 246.391884 38.83752 246.391884
z
" clip-path="url(#p28543d1d82)" style="fill: #e7f4ef; stroke: #009e73; stroke-width: 1.1; stroke-linejoin: miter"/>
   </g>
   <g id="patch_14">
    <path d="M 38.83752 284.950404
L 198.64872 284.950404
Q 205.840224 284.950404 205.840224 279.611532
L 205.840224 260.035668
Q 205.840224 254.696796 198.64872 254.696796
L 38.83752 254.696796
Q 31.646016 254.696796 31.646016 260.035668
L 31.646016 279.611532
Q 31.646016 284.950404 38.83752 284.950404
z
" clip-path="url(#p28543d1d82)" style="fill: #fbf1dc; stroke: #e69f00; stroke-width: 1.1; stroke-linejoin: miter"/>
   </g>
   <g id="patch_15">
    <path d="M 234.60624 67.539672
L 382.4316 67.539672
Q 389.623104 67.539672 389.623104 62.2008
L 389.623104 14.74416
Q 389.623104 9.405288 382.4316 9.405288
L 234.60624 9.405288
Q 227.414736 9.405288 227.414736 14.74416
L 227.414736 62.2008
Q 227.414736 67.539672 234.60624 67.539672
z
" clip-path="url(#p28543d1d82)" style="fill: #e8f2f8; stroke: #0072b2; stroke-linejoin: miter"/>
   </g>
   <g id="patch_16">
    <path d="M 234.60624 123.894432
L 382.4316 123.894432
Q 389.623104 123.894432 389.623104 118.55556
L 389.623104 71.09892
Q 389.623104 65.760048 382.4316 65.760048
L 234.60624 65.760048
Q 227.414736 65.760048 227.414736 71.09892
L 227.414736 118.55556
Q 227.414736 123.894432 234.60624 123.894432
z
" clip-path="url(#p28543d1d82)" style="fill: #f2f2f2; stroke: #777777; stroke-linejoin: miter"/>
   </g>
   <g id="patch_17">
    <path d="M 234.60624 174.317112
L 382.4316 174.317112
Q 389.623104 174.317112 389.623104 168.97824
L 389.623104 139.31784
Q 389.623104 133.978968 382.4316 133.978968
L 234.60624 133.978968
Q 227.414736 133.978968 227.414736 139.31784
L 227.414736 168.97824
Q 227.414736 174.317112 234.60624 174.317112
z
" clip-path="url(#p28543d1d82)" style="fill: #f2f2f2; stroke: #777777; stroke-linejoin: miter"/>
   </g>
   <g id="patch_18">
    <path d="M 234.60624 230.671872
L 382.4316 230.671872
Q 389.623104 230.671872 389.623104 225.333
L 389.623104 186.77448
Q 389.623104 181.435608 382.4316 181.435608
L 234.60624 181.435608
Q 227.414736 181.435608 227.414736 186.77448
L 227.414736 225.333
Q 227.414736 230.671872 234.60624 230.671872
z
" clip-path="url(#p28543d1d82)" style="fill: #e7f4ef; stroke: #009e73; stroke-linejoin: miter"/>
   </g>
   <g id="patch_19">
    <path d="M 234.60624 285.543612
L 382.4316 285.543612
Q 389.623104 285.543612 389.623104 280.20474
L 389.623104 244.61226
Q 389.623104 239.273388 382.4316 239.273388
L 234.60624 239.273388
Q 227.414736 239.273388 227.414736 244.61226
L 227.414736 280.20474
Q 227.414736 285.543612 234.60624 285.543612
z
" clip-path="url(#p28543d1d82)" style="fill: #fbf1dc; stroke: #e69f00; stroke-linejoin: miter"/>
   </g>
   <g id="text_1">
    <text style="font-weight: 700; font-size: 8.2px; font-family: 'Arial', 'Liberation Sans', 'DejaVu Sans', sans-serif; text-anchor: middle" x="118.74312" y="36.442094" transform="rotate(-0 118.74312 36.442094)">Records identified</text>
   </g>
   <g id="text_2">
    <text style="font-size: 8.1px; font-family: 'Arial', 'Liberation Sans', 'DejaVu Sans', sans-serif; text-anchor: middle; fill: #333333" x="118.74312" y="46.500751" transform="rotate(-0 118.74312 46.500751)">n=1,733</text>
   </g>
   <g id="text_3">
    <text style="font-weight: 700; font-size: 8.2px; font-family: 'Arial', 'Liberation Sans', 'DejaVu Sans', sans-serif; text-anchor: middle" x="118.74312" y="75.000614" transform="rotate(-0 118.74312 75.000614)">Records screened</text>
   </g>
   <g id="text_4">
    <text style="font-size: 8.1px; font-family: 'Arial', 'Liberation Sans', 'DejaVu Sans', sans-serif; text-anchor: middle; fill: #333333" x="118.74312" y="85.059271" transform="rotate(-0 118.74312 85.059271)">n=1,259</text>
   </g>
   <g id="text_5">
    <text style="font-weight: 700; font-size: 8.2px; font-family: 'Arial', 'Liberation Sans', 'DejaVu Sans', sans-serif; text-anchor: middle" x="118.74312" y="113.559134" transform="rotate(-0 118.74312 113.559134)">Source records forwarded</text>
   </g>
   <g id="text_6">
    <text style="font-size: 8.1px; font-family: 'Arial', 'Liberation Sans', 'DejaVu Sans', sans-serif; text-anchor: middle; fill: #333333" x="118.74312" y="123.617791" transform="rotate(-0 118.74312 123.617791)">n=332</text>
   </g>
   <g id="text_7">
    <text style="font-weight: 700; font-size: 8.2px; font-family: 'Arial', 'Liberation Sans', 'DejaVu Sans', sans-serif; text-anchor: middle" x="118.74312" y="152.117574" transform="rotate(-0 118.74312 152.117574)">Unique reports sought</text>
   </g>
   <g id="text_8">
    <text style="font-size: 8.1px; font-family: 'Arial', 'Liberation Sans', 'DejaVu Sans', sans-serif; text-anchor: middle; fill: #333333" x="118.74312" y="162.176311" transform="rotate(-0 118.74312 162.176311)">n=330</text>
   </g>
   <g id="text_9">
    <text style="font-weight: 700; font-size: 8.2px; font-family: 'Arial', 'Liberation Sans', 'DejaVu Sans', sans-serif; text-anchor: middle" x="118.74312" y="190.676174" transform="rotate(-0 118.74312 190.676174)">Full text reports assessed</text>
   </g>
   <g id="text_10">
    <text style="font-size: 8.1px; font-family: 'Arial', 'Liberation Sans', 'DejaVu Sans', sans-serif; text-anchor: middle; fill: #333333" x="118.74312" y="200.734831" transform="rotate(-0 118.74312 200.734831)">n=272</text>
   </g>
   <g id="text_11">
    <text style="font-weight: 700; font-size: 8.2px; font-family: 'Arial', 'Liberation Sans', 'DejaVu Sans', sans-serif; text-anchor: middle" x="118.74312" y="229.234614" transform="rotate(-0 118.74312 229.234614)">Eligible reports</text>
   </g>
   <g id="text_12">
    <text style="font-size: 8.1px; font-family: 'Arial', 'Liberation Sans', 'DejaVu Sans', sans-serif; text-anchor: middle; fill: #333333" x="118.74312" y="239.293351" transform="rotate(-0 118.74312 239.293351)">n=227</text>
   </g>
   <g id="text_13">
    <text style="font-weight: 700; font-size: 8.2px; font-family: 'Arial', 'Liberation Sans', 'DejaVu Sans', sans-serif; text-anchor: middle" x="118.74312" y="267.793214" transform="rotate(-0 118.74312 267.793214)">Unique studies</text>
   </g>
   <g id="text_14">
    <text style="font-size: 8.1px; font-family: 'Arial', 'Liberation Sans', 'DejaVu Sans', sans-serif; text-anchor: middle; fill: #333333" x="118.74312" y="277.851871" transform="rotate(-0 118.74312 277.851871)">n=206</text>
   </g>
   <g id="text_15">
    <text style="font-weight: 700; font-size: 8.3px; font-family: 'Arial', 'Liberation Sans', 'DejaVu Sans', sans-serif; fill: #0072b2" transform="translate(15.016149 92.153168) rotate(-90)">Records</text>
   </g>
   <g id="text_16">
    <text style="font-weight: 700; font-size: 8.3px; font-family: 'Arial', 'Liberation Sans', 'DejaVu Sans', sans-serif; fill: #009e73" transform="translate(15.016149 209.868799) rotate(-90)">Reports</text>
   </g>
   <g id="text_17">
    <text style="font-weight: 700; font-size: 8.3px; font-family: 'Arial', 'Liberation Sans', 'DejaVu Sans', sans-serif; fill: #e69f00" transform="translate(15.016149 284.811584) rotate(-90)">Studies</text>
   </g>
   <g id="text_18">
    <text style="font-weight: 700; font-size: 8.1px; font-family: 'Arial', 'Liberation Sans', 'DejaVu Sans', sans-serif; text-anchor: middle" x="308.51892" y="24.255451" transform="rotate(-0 308.51892 24.255451)">Source contributions</text>
   </g>
   <g id="text_19">
    <text style="font-size: 7.3px; font-family: 'Arial', 'Liberation Sans', 'DejaVu Sans', sans-serif" transform="translate(285.184014 32.909288)">Scopus  1,273</text>
    <text style="font-size: 7.3px; font-family: 'Arial', 'Liberation Sans', 'DejaVu Sans', sans-serif" transform="translate(280.519428 41.233712)">IEEE Xplore  329</text>
    <text style="font-size: 7.3px; font-family: 'Arial', 'Liberation Sans', 'DejaVu Sans', sans-serif" transform="translate(281.940647 49.582659)">SpringerLink  75</text>
    <text style="font-size: 7.3px; font-family: 'Arial', 'Liberation Sans', 'DejaVu Sans', sans-serif" transform="translate(263.481912 58.666739)">Other searched sources  56</text>
   </g>
   <g id="text_20">
    <text style="font-weight: 700; font-size: 8.1px; font-family: 'Arial', 'Liberation Sans', 'DejaVu Sans', sans-serif; text-anchor: middle" x="308.51892" y="80.610132" transform="rotate(-0 308.51892 80.610132)">Screening dispositions</text>
   </g>
   <g id="text_21">
    <text style="font-size: 7.3px; font-family: 'Arial', 'Liberation Sans', 'DejaVu Sans', sans-serif" transform="translate(272.001811 85.051363)">Duplicate records  472</text>
    <text style="font-size: 7.3px; font-family: 'Arial', 'Liberation Sans', 'DejaVu Sans', sans-serif" transform="translate(269.159373 93.409436)">Metadata dispositions  2</text>
    <text style="font-size: 7.3px; font-family: 'Arial', 'Liberation Sans', 'DejaVu Sans', sans-serif" transform="translate(254.486943 102.448461)">Title and abstract exclusions  864</text>
    <text style="font-size: 7.3px; font-family: 'Arial', 'Liberation Sans', 'DejaVu Sans', sans-serif" transform="translate(271.798779 110.840182)">Contextual records  61</text>
    <text style="font-size: 7.3px; font-family: 'Arial', 'Liberation Sans', 'DejaVu Sans', sans-serif" transform="translate(272.609764 118.474528)">Related report flags  2</text>
   </g>
   <g id="text_22">
    <text style="font-weight: 700; font-size: 8.1px; font-family: 'Arial', 'Liberation Sans', 'DejaVu Sans', sans-serif; text-anchor: middle" x="308.51892" y="148.829052" transform="rotate(-0 308.51892 148.829052)">Retrieval boundary</text>
   </g>
   <g id="text_23">
    <text style="font-size: 7.3px; font-family: 'Arial', 'Liberation Sans', 'DejaVu Sans', sans-serif" transform="translate(271.188545 156.866498)">Bibliographic aliases  2</text>
    <text style="font-size: 7.3px; font-family: 'Arial', 'Liberation Sans', 'DejaVu Sans', sans-serif" transform="translate(268.35067 165.267344)">Reports not retrieved  58</text>
   </g>
   <g id="text_24">
    <text style="font-weight: 700; font-size: 8.1px; font-family: 'Arial', 'Liberation Sans', 'DejaVu Sans', sans-serif; text-anchor: middle" x="308.51892" y="196.285771" transform="rotate(-0 308.51892 196.285771)">Full text outcomes</text>
   </g>
   <g id="text_25">
    <text style="font-size: 7.3px; font-family: 'Arial', 'Liberation Sans', 'DejaVu Sans', sans-serif" transform="translate(288.633834 204.593162)">Eligible  227</text>
    <text style="font-size: 7.3px; font-family: 'Arial', 'Liberation Sans', 'DejaVu Sans', sans-serif" transform="translate(287.012436 213.70861)">Contextual  6</text>
    <text style="font-size: 7.3px; font-family: 'Arial', 'Liberation Sans', 'DejaVu Sans', sans-serif" transform="translate(284.985545 222.031322)">Exclusions  39</text>
   </g>
   <g id="text_26">
    <text style="font-weight: 700; font-size: 8.1px; font-family: 'Arial', 'Liberation Sans', 'DejaVu Sans', sans-serif; text-anchor: middle" x="308.51892" y="254.123551" transform="rotate(-0 308.51892 254.123551)">Contextual corpus</text>
   </g>
   <g id="text_27">
    <text style="font-size: 7.3px; font-family: 'Arial', 'Liberation Sans', 'DejaVu Sans', sans-serif; text-anchor: middle" x="308.51892" y="270.029721" transform="rotate(-0 308.51892 270.029721)">61 + 6 = 67</text>
   </g>
   <g id="text_28">
    <text style="font-size: 7.1px; font-family: 'Arial', 'Liberation Sans', 'DejaVu Sans', sans-serif; text-anchor: start; fill: #777777" x="164.68884" y="136.706182" transform="rotate(-0 164.68884 136.706182)">2 aliases</text>
   </g>
   <g id="text_29">
    <text style="font-size: 7.1px; font-family: 'Arial', 'Liberation Sans', 'DejaVu Sans', sans-serif; text-anchor: start; fill: #777777" x="164.68884" y="252.381742" transform="rotate(-0 164.68884 252.381742)">21 companion links</text>
   </g>
  </g>
 </g>
 <defs>
  <clipPath id="p28543d1d82">
   <rect x="2.88" y="2.88" width="399.528" height="296.604"/>
  </clipPath>
 </defs>
</svg>
