<svg xmlns="http://www.w3.org/2000/svg" width="516pt" height="199pt" viewBox="0 0 516 199">
<rect width="516" height="100%" fill="white"/>
<text x="0" y="12" font-family="Arial, sans-serif" font-size="9" font-weight="bold" text-anchor="start" fill="#16324F">(a) Highest reported validation setting</text>
<text x="0" y="28" font-family="Arial, sans-serif" font-size="8" font-weight="normal" text-anchor="start" fill="#687680">One setting per study; n = 206</text>
<text x="148" y="57" font-family="Arial, sans-serif" font-size="8" font-weight="normal" text-anchor="end" fill="#243B4A">Simulation / numerical</text>
<polygon points="155,47 209.4,47 209.4,60 155,60" fill="#0072B2" stroke="#0072B2" stroke-width="0.3"/>
<text x="214.4" y="57" font-family="Arial, sans-serif" font-size="8" font-weight="bold" text-anchor="start" fill="#243B4A">32</text>
<text x="148" y="81" font-family="Arial, sans-serif" font-size="8" font-weight="normal" text-anchor="end" fill="#243B4A">Enhanced simulation / dataset</text>
<polygon points="155,71 185.6,71 185.6,84 155,84" fill="#0072B2" stroke="#0072B2" stroke-width="0.3"/>
<text x="190.6" y="81" font-family="Arial, sans-serif" font-size="8" font-weight="bold" text-anchor="start" fill="#243B4A">18</text>
<text x="148" y="105" font-family="Arial, sans-serif" font-size="8" font-weight="normal" text-anchor="end" fill="#243B4A">Laboratory / proof of concept</text>
<polygon points="155,95 287.6,95 287.6,108 155,108" fill="#0072B2" stroke="#0072B2" stroke-width="0.3"/>
<text x="292.6" y="105" font-family="Arial, sans-serif" font-size="8" font-weight="bold" text-anchor="start" fill="#243B4A">78</text>
<text x="148" y="129" font-family="Arial, sans-serif" font-size="8" font-weight="normal" text-anchor="end" fill="#243B4A">Controlled prototype</text>
<polygon points="155,119 267.2,119 267.2,132 155,132" fill="#0072B2" stroke="#0072B2" stroke-width="0.3"/>
<text x="272.2" y="129" font-family="Arial, sans-serif" font-size="8" font-weight="bold" text-anchor="start" fill="#243B4A">66</text>
<text x="148" y="153" font-family="Arial, sans-serif" font-size="8" font-weight="normal" text-anchor="end" fill="#243B4A">Field trial / deployment</text>
<polygon points="155,143 175.4,143 175.4,156 155,156" fill="#008665" stroke="#008665" stroke-width="0.3"/>
<text x="180.4" y="153" font-family="Arial, sans-serif" font-size="8" font-weight="bold" text-anchor="start" fill="#243B4A">12</text>
<line x1="155" y1="166" x2="291.0" y2="166" stroke="#687680" stroke-width="0.6"/>
<line x1="155.0" y1="166" x2="155.0" y2="169" stroke="#687680" stroke-width="0.6"/>
<text x="155.0" y="180" font-family="Arial, sans-serif" font-size="7.5" font-weight="normal" text-anchor="middle" fill="#687680">0</text>
<line x1="189.0" y1="166" x2="189.0" y2="169" stroke="#687680" stroke-width="0.6"/>
<text x="189.0" y="180" font-family="Arial, sans-serif" font-size="7.5" font-weight="normal" text-anchor="middle" fill="#687680">20</text>
<line x1="223.0" y1="166" x2="223.0" y2="169" stroke="#687680" stroke-width="0.6"/>
<text x="223.0" y="180" font-family="Arial, sans-serif" font-size="7.5" font-weight="normal" text-anchor="middle" fill="#687680">40</text>
<line x1="257.0" y1="166" x2="257.0" y2="169" stroke="#687680" stroke-width="0.6"/>
<text x="257.0" y="180" font-family="Arial, sans-serif" font-size="7.5" font-weight="normal" text-anchor="middle" fill="#687680">60</text>
<line x1="291.0" y1="166" x2="291.0" y2="169" stroke="#687680" stroke-width="0.6"/>
<text x="291.0" y="180" font-family="Arial, sans-serif" font-size="7.5" font-weight="normal" text-anchor="middle" fill="#687680">80</text>
<text x="223" y="194" font-family="Arial, sans-serif" font-size="8" font-weight="normal" text-anchor="middle" fill="#243B4A">Studies</text>
<line x1="313" y1="4" x2="313" y2="182" stroke="#DCE3E7" stroke-width="0.6"/>
<text x="329" y="12" font-family="Arial, sans-serif" font-size="9" font-weight="bold" text-anchor="start" fill="#16324F">(b) Field evidence, nested view</text>
<polygon points="331,35 515,35 515,148 331,148" fill="#F4F9F6" stroke="#008665" stroke-width="0.9"/>
<text x="342" y="54" font-family="Arial, sans-serif" font-size="8.5" font-weight="bold" text-anchor="start" fill="#008665">12 field / deployment studies</text>
<polygon points="347,68 499,68 499,121 347,121" fill="#E3F1E8" stroke="#008665" stroke-width="0.8"/>
<text x="423" y="88" font-family="Arial, sans-serif" font-size="9" font-weight="bold" text-anchor="middle" fill="#16324F">6 report outcomes</text>
<text x="423" y="102" font-family="Arial, sans-serif" font-size="9" font-weight="bold" text-anchor="middle" fill="#16324F">in both domains</text>
<text x="342" y="140" font-family="Arial, sans-serif" font-size="8" font-weight="normal" text-anchor="start" fill="#243B4A">Other field studies: 6</text>
<text x="329" y="166" font-family="Arial, sans-serif" font-size="8.2" font-weight="normal" text-anchor="start" fill="#687680">Both-domain reporting does not</text>
<text x="329" y="177" font-family="Arial, sans-serif" font-size="8.2" font-weight="normal" text-anchor="start" fill="#687680">establish concurrent operation.</text>
</svg>